Decibel Outdoor Festival (2011) 1080p MKV X264 AC3
.
[IMG]http://img24.imageshack.us/img24/2526/decibel.jpg[/IMG]
.
RELEASE : Decibel.Outdoor.2011.1080p.MBluRay.x264
SOURCE : Music Bluray
DATE : 2011/12/07
GENRE : Hardcore & Hardstyle
RUNTIME : 100min
 
http://www.b2s.nl/decibel2011/

AUDIO : [AC3] @ 448kbps

VIDEO : [x264] @ 8877kbps

RESOLUTION : [1920x1080]

SUBS : [ ] English [ ] Dutch [ ] Finnish
[ ] French [ ] Swedish [ ] Icelandic
[ ] Spanish [ ] Norwegian [ ] Russian
[ ] Croatian [ ] Romanian [ ] Turkish
[ ] Bulgarian [ ] Danish [ ] English for Deaf
[ ] Hungarian [ ] Serbian [ ] Slovenian
[ ] Hebrew [ ] German [ ] Hindi
[ ] Greek [ ] Polish [X] Non

COMMENT : njoy!
.
Format                           : Matroska
Format version                   : Version 2
File size                        : 6,56 GiB
Duration                         : 1h 40mn
Overall bit rate                 : 9 325 Kbps
Encoded date                     : UTC 2011-12-07 19:50:13
Writing application              : mkvmerge v4.4.0 ('Die Wiederkehr') gemaakt op Oct 31 2010 21:52:48
Writing library                  : libebml v1.0.0 + libmatroska v1.0.0

Video
ID                               : 2
Format                           : AVC
Format/Info                      : Advanced Video Codec
Format profile                   : High@L4.1
Format settings, CABAC           : Ja
Format settings, ReFrames        : 4 frames
Muxing mode                      : Header stripping
Codec ID                         : V_MPEG4/ISO/AVC
Duration                         : 1h 40mn
Bit rate                         : 8 877 Kbps
Width                            : 1 920 pixels
Height                           : 1 080 pixels
Display aspect ratio             : 16:9
Frame rate                       : 25,000 fps
Color space                      : YUV
Chroma subsampling               : 4:2:0
Bit depth                        : 8 bits
Scan type                        : Progressief
Bits/(Pixel*Frame)               : 0.171
Stream size                      : 6,11 GiB (93%)
Writing library                  : x264 core 120 r2119 0637cd6
Encoding settings                : cabac=1 / ref=4 / deblock=1:0:0 / analyse=0x3:0x133 / me=umh / subme=7 / psy=1 / psy_rd=1.00:0.00 / mixed_ref=1 / me_range=16 / chroma_me=1 / trellis=1 / 8x8dct=1 / cqm=0 / deadzone=21,11 / fast_pskip=1 / chroma_qp_offset=-2 / threads=6 / sliced_threads=0 / nr=0 / decimate=1 / interlaced=0 / bluray_compat=0 / constrained_intra=0 / bframes=3 / b_pyramid=2 / b_adapt=2 / b_bias=0 / direct=3 / weightb=1 / open_gop=0 / weightp=2 / keyint=250 / keyint_min=25 / scenecut=40 / intra_refresh=0 / rc=2pass / mbtree=0 / bitrate=8877 / ratetol=1.0 / qcomp=0.60 / qpmin=0 / qpmax=69 / qpstep=4 / cplxblur=20.0 / qblur=0.5 / ip_ratio=1.40 / pb_ratio=1.30 / aq=1:1.00
Language                         : Engels

Audio
ID                               : 1
Format                           : AC-3
Format/Info                      : Audio Coding 3
Mode extension                   : CM (complete main)
Muxing mode                      : Header stripping
Codec ID                         : A_AC3
Duration                         : 1h 40mn
Bit rate mode                    : Constant
Bit rate                         : 448 Kbps
Channel(s)                       : 6 kanalen
Channel positions                : Front: L C R, Side: L R, LFE
Sampling rate                    : 48,0 KHz
Bit depth                        : 16 bits
Stream size                      : 323 MiB (5%)
